<svg xmlns="http://www.w3.org/2000/svg" viewBox="0 0 1280 320" preserveAspectRatio="xMidYMid slice" role="img" aria-label="Mason Wyatt — Co-founder and CEO at Ashlr AI">
  <defs>
    <linearGradient id="bg" x1="0" y1="0" x2="1280" y2="320" gradientUnits="userSpaceOnUse">
      <stop offset="0%" stop-color="#0D1520"/>
      <stop offset="55%" stop-color="#1A2B3C"/>
      <stop offset="100%" stop-color="#101A24"/>
    </linearGradient>
    <linearGradient id="accent" x1="0" y1="0" x2="0" y2="1">
      <stop offset="0%" stop-color="#60A5FA"/>
      <stop offset="100%" stop-color="#2563EB"/>
    </linearGradient>
    <pattern id="grid" width="40" height="40" patternUnits="userSpaceOnUse">
      <path d="M 40 0 L 0 0 0 40" fill="none" stroke="#2563EB" stroke-opacity="0.06" stroke-width="1"/>
    </pattern>
    <radialGradient id="glow" cx="0.18" cy="0.5" r="0.4">
      <stop offset="0%" stop-color="#2563EB" stop-opacity="0.22"/>
      <stop offset="100%" stop-color="#2563EB" stop-opacity="0"/>
    </radialGradient>
  </defs>

  <rect width="1280" height="320" fill="url(#bg)"/>
  <rect width="1280" height="320" fill="url(#grid)"/>
  <rect width="1280" height="320" fill="url(#glow)"/>

  <g opacity="0.55" transform="translate(820, 50)">
    <rect x="0"   y="0"   width="86" height="42" rx="3" fill="#2563EB" opacity="0.18"/>
    <rect x="92"  y="0"   width="64" height="42" rx="3" fill="#2563EB" opacity="0.28"/>
    <rect x="162" y="0"   width="106" height="42" rx="3" fill="#2563EB" opacity="0.14"/>
    <rect x="274" y="0"   width="54" height="42" rx="3" fill="#2563EB" opacity="0.34"/>
    <rect x="334" y="0"   width="76" height="42" rx="3" fill="#2563EB" opacity="0.20"/>

    <rect x="0"   y="48"  width="54" height="42" rx="3" fill="#2563EB" opacity="0.26"/>
    <rect x="60"  y="48"  width="86" height="42" rx="3" fill="#2563EB" opacity="0.18"/>
    <rect x="152" y="48"  width="64" height="42" rx="3" fill="#2563EB" opacity="0.36"/>
    <rect x="222" y="48"  width="106" height="42" rx="3" fill="#2563EB" opacity="0.20"/>
    <rect x="334" y="48"  width="76" height="42" rx="3" fill="#2563EB" opacity="0.14"/>

    <rect x="0"   y="96"  width="106" height="42" rx="3" fill="#2563EB" opacity="0.22"/>
    <rect x="112" y="96"  width="64" height="42" rx="3" fill="#2563EB" opacity="0.32"/>
    <rect x="182" y="96"  width="86" height="42" rx="3" fill="#2563EB" opacity="0.16"/>
    <rect x="274" y="96"  width="54" height="42" rx="3" fill="#2563EB" opacity="0.28"/>
    <rect x="334" y="96"  width="76" height="42" rx="3" fill="#2563EB" opacity="0.20"/>

    <rect x="0"   y="144" width="64" height="42" rx="3" fill="#2563EB" opacity="0.26"/>
    <rect x="70"  y="144" width="86" height="42" rx="3" fill="#2563EB" opacity="0.18"/>
    <rect x="162" y="144" width="64" height="42" rx="3" fill="#2563EB" opacity="0.34"/>
    <rect x="232" y="144" width="96" height="42" rx="3" fill="#2563EB" opacity="0.16"/>
    <rect x="334" y="144" width="76" height="42" rx="3" fill="#2563EB" opacity="0.24"/>
  </g>

  <g font-family="'Space Grotesk', 'Inter', 'Helvetica Neue', Arial, sans-serif">
    <g transform="translate(80, 96)">
      <rect width="28" height="28" rx="5" fill="url(#accent)"/>
      <rect x="0.5" y="0.5" width="27" height="27" rx="4.5" fill="none" stroke="#FFFFFF" stroke-opacity="0.18" stroke-width="1"/>
      <rect x="6" y="6" width="6" height="6" rx="1" fill="#FFFFFF" fill-opacity="0.85"/>
      <rect x="14" y="6" width="8" height="6" rx="1" fill="#FFFFFF" fill-opacity="0.5"/>
      <rect x="6" y="16" width="10" height="6" rx="1" fill="#FFFFFF" fill-opacity="0.65"/>
      <rect x="18" y="16" width="4" height="6" rx="1" fill="#FFFFFF" fill-opacity="0.85"/>
    </g>

    <text x="80" y="195" font-size="76" font-weight="700" letter-spacing="-2.5" fill="#FFFFFF">Mason Wyatt</text>

    <text x="84" y="232" font-size="20" font-weight="500" letter-spacing="0.2" fill="#9CA3AF">
      Co-founder &amp; CEO · <tspan fill="#FFFFFF" font-weight="600">Ashlr AI</tspan>
    </text>

    <g transform="translate(80, 258)">
      <line x1="0" y1="0" x2="32" y2="0" stroke="#2563EB" stroke-width="2" stroke-linecap="round"/>
      <text x="44" y="6" font-size="15" font-style="italic" font-weight="400" fill="#60A5FA" letter-spacing="0.3">
        Digital Masonry.
      </text>
    </g>
  </g>
</svg>
