<svg xmlns="http://www.w3.org/2000/svg" viewBox="0 0 512 512" fill="none">
  <defs>
    <linearGradient id="fade" x1="0%" y1="0%" x2="0%" y2="100%">
      <stop offset="60%" style="stop-color:#3b82f6;stop-opacity:1"/>
      <stop offset="100%" style="stop-color:#3b82f6;stop-opacity:0"/>
    </linearGradient>
  </defs>
  <path d="M256 48c-88.4 0-160 71.6-160 160v120c0 8.8 7.2 16 16 16h32c0-24 16-40 32-40s32 16 32 40h16c0-24 16-40 32-40s32 16 32 40h16c0-24 16-40 32-40s32 16 32 40h32c8.8 0 16-7.2 16-16V208c0-88.4-71.6-160-160-160z" fill="url(#fade)"/>
  <circle cx="208" cy="224" r="28" fill="#06060b"/>
  <circle cx="304" cy="224" r="28" fill="#06060b"/>
  <circle cx="216" cy="218" r="10" fill="#f0f0f4"/>
  <circle cx="312" cy="218" r="10" fill="#f0f0f4"/>
  <circle cx="256" cy="288" r="12" fill="#06060b" opacity="0.6"/>
  <rect x="250" y="296" width="12" height="20" rx="2" fill="#06060b" opacity="0.6"/>
</svg>
